<?xml version="1.0" encoding="utf-8"?>
<!-- Generator: Adobe Illustrator 26.0.2, SVG Export Plug-In . SVG Version: 6.00 Build 0)  -->
<svg version="1.1" id="Layer_1" xmlns="http://www.w3.org/2000/svg" xmlns:xlink="http://www.w3.org/1999/xlink" x="0px" y="0px"
	 viewBox="0 0 144 145" style="enable-background:new 0 0 144 145;" xml:space="preserve">
<style type="text/css">
	.st0{fill:url(#SVGID_1_);}
</style>
<g id="Layer_2_00000112624960289618809740000014038028581612580770_">
	<g id="Layer_1-2">
		
			<radialGradient id="SVGID_1_" cx="71.9833" cy="347.0791" r="72.3297" gradientTransform="matrix(1 0 0 1 0 -274.4979)" gradientUnits="userSpaceOnUse">
			<stop  offset="0" style="stop-color:#ED1C24"/>
			<stop  offset="1" style="stop-color:#F15A24"/>
		</radialGradient>
		<path class="st0" d="M96.9,98.2c3.2,3.1,5.7,6.9,7.3,11.1c1.7,4.4,2.3,8.8,1.8,13.1c-0.8,7.2-4.3,13-10.4,17.3
			c-6.1,4.4-13.1,6.1-21,5.2c-7.4-0.9-13.3-4.1-17.4-9.7c-4.2-5.6-5.8-12.4-4.9-20.4c0.1-1.4,0.4-2.8,0.8-4.2
			c0.3-1.3,0.8-2.5,1.3-3.7l3.3-7.6c-0.4-0.3-0.8-0.5-1.2-0.7c-0.3-0.1-0.6-0.3-0.9-0.3l-3.7,7.4c-2.6,5.4-6.7,9.9-11.8,12.9
			c-5.1,3-10.5,4.3-16.1,3.6c-7.2-0.8-13.1-4.4-18-10.8C1.2,104.9-0.8,98,0.1,90.6c0.8-6.9,4.3-12.7,10.4-17.2
			c6.1-4.6,12.8-6.4,20-5.6l8.5,1l0.3-2.3l-8.2-1.2c-7.7-1.1-14-4.4-18.7-10s-6.7-11.9-5.9-19c0.9-7.4,4.4-13.7,10.5-18.8
			s12.8-7.3,19.9-6.4c5.6,0.6,10.6,3.2,15.2,7.5s7.3,9.3,8.4,14.9l1.8,8.2c0.5-0.1,0.9-0.1,1.4-0.3c0.3-0.1,0.7-0.2,1-0.2l-1.7-8.2
			c-0.3-1.3-0.4-2.6-0.4-4c0-1.5,0.1-3.1,0.3-4.6c0.9-7.8,4-14,9.4-18.5c5.3-4.5,11.7-6.3,19.1-5.5c8,0.9,14.4,4.2,19.3,9.9
			c4.9,5.7,7,12.1,6.1,19.2c-0.5,4.3-2.1,8.4-4.6,12.4c-2.6,4-5.8,7-9.5,9.2l-7.2,4.3c0.1,0.2,0.2,0.4,0.3,0.6
			c0.1,0.3,0.4,0.8,0.8,1.5l7.2-3.9c2.7-1.5,5.5-2.5,8.5-3.1c3-0.6,6.1-0.7,9.1-0.4c7.4,0.9,13.3,4.1,17.5,9.7s5.9,12.3,5,20.1
			c-0.9,7.8-4.1,14-9.5,18.4c-5.4,4.4-11.8,6.3-19.3,5.4c-3.1-0.4-6.2-1.2-9-2.4c-2.7-1.1-5.2-2.7-7.4-4.7l-6.3-5.7
			c-0.3,0.4-0.6,0.8-0.8,1.1c-0.2,0.3-0.5,0.5-0.8,0.7L96.9,98.2z M66.5,95.3c6.8,0.8,12.8-0.9,18-5c5.2-4.1,8.2-9.6,9-16.4
			c0.8-6.8-0.9-12.8-5-18c-4.1-5.2-9.6-8.2-16.4-9c-6.8-0.8-12.8,0.9-18,5s-8.2,9.6-9,16.4c-0.8,6.8,0.9,12.8,5,18
			C54.2,91.5,59.7,94.5,66.5,95.3z"/>
	</g>
</g>
</svg>
