<svg xmlns="http://www.w3.org/2000/svg" xmlns:xlink="http://www.w3.org/1999/xlink" viewBox="0 0 439.01 442.09"><defs><style>.cls-1{fill:url(#radial-gradient);}</style><radialGradient id="radial-gradient" cx="219.5" cy="221.04" r="220.27" gradientUnits="userSpaceOnUse"><stop offset="0" stop-color="#ed1c24"/><stop offset="1" stop-color="#f15a24"/></radialGradient></defs><g id="Layer_2" data-name="Layer 2"><g id="Layer_1-2" data-name="Layer 1"><path class="cls-1" d="M295.35,299.17a88,88,0,0,1,22.1,33.75q7.62,20.2,5.36,39.85-3.8,32.84-31.65,52.8t-63.94,15.8q-34-3.93-53.05-29.46t-14.81-62.18a87.35,87.35,0,0,1,2.37-12.8,84.19,84.19,0,0,1,4-11.42l10.11-23.21a21.1,21.1,0,0,0-3.61-2.19,9.69,9.69,0,0,0-2.87-.93l-11.21,22.48a91.39,91.39,0,0,1-35.88,39.24q-23.45,13.94-49,11Q40.75,368.13,18.71,339T.59,275.83q3.66-31.66,31.62-52.51t60.81-17l25.8,3,.81-7-25.11-3.8q-35.38-5-56.95-30.5T19.72,110.15q3.93-34,32-57.37t60.65-19.59q25.51,3,46.26,22.73t25.52,45.29l5.44,25a26,26,0,0,0,4.25-.85,21,21,0,0,1,3.05-.68l-5.14-25a66.72,66.72,0,0,1-1.27-12.18,106.61,106.61,0,0,1,.74-14q4.13-35.79,28.63-56.28T278.12.62q36.36,4.2,58.79,30T355.55,89.2q-2.26,19.65-14.18,37.88T312.59,155l-22,12.91a12.8,12.8,0,0,0,.84,1.73q.62,1.11,2.59,4.61l21.89-12a88.54,88.54,0,0,1,26-9.33,90.72,90.72,0,0,1,27.76-1.1q34,3.93,53.35,29.49t15.21,61.33q-4.14,35.78-28.77,56.11t-58.65,16.41a97.65,97.65,0,0,1-27.53-7.34,81.54,81.54,0,0,1-22.58-14.2l-19.09-17.36q-1.41,1.92-2.61,3.27a10.14,10.14,0,0,1-2.47,2.09Zm-92.57-8.91q31.07,3.58,55-15.34t27.46-50q3.6-31.08-15.34-55t-50-27.46q-31.08-3.58-55,15.34t-27.47,50q-3.58,31.08,15.35,55T202.78,290.26Z"/></g></g></svg>