<?xml version="1.0" encoding="utf-8"?>
<!-- Generator: Adobe Illustrator 26.0.2, SVG Export Plug-In . SVG Version: 6.00 Build 0)  -->
<svg version="1.1" id="Layer_1" xmlns="http://www.w3.org/2000/svg" xmlns:xlink="http://www.w3.org/1999/xlink" x="0px" y="0px"
	 viewBox="0 0 512 515.6" style="enable-background:new 0 0 512 515.6;" xml:space="preserve">
<style type="text/css">
	.st0{fill:url(#SVGID_1_);}
</style>
<g id="Layer_2_00000112624960289618809740000014038028581612580770_">
	<g id="Layer_1-2">
		
			<radialGradient id="SVGID_1_" cx="255.9738" cy="259.7076" r="256.8845" gradientTransform="matrix(1 0 0 -1 0 517.5021)" gradientUnits="userSpaceOnUse">
			<stop  offset="0" style="stop-color:#ED1C24"/>
			<stop  offset="1" style="stop-color:#F15A24"/>
		</radialGradient>
		<path class="st0" d="M344.5,348.9c11.5,10.9,20.3,24.4,25.8,39.4c5.9,15.7,8,31.2,6.3,46.5c-3,25.5-15.3,46.1-36.9,61.6
			c-21.7,15.5-46.5,21.7-74.6,18.4c-26.4-3.1-47.1-14.5-61.9-34.4c-14.8-19.8-20.6-44-17.3-72.5c0.5-5,1.5-10,2.8-14.9
			c1.2-4.5,2.8-9,4.7-13.3l11.8-27.1c-1.3-1-2.7-1.8-4.2-2.6c-1.1-0.5-2.2-0.9-3.3-1.1l-13.1,26.2c-9.1,19.1-23.7,35-41.8,45.8
			c-18.2,10.8-37.3,15.1-57.1,12.8C60.2,430.8,39,418,21.8,395.4s-24.2-47.2-21.1-73.7c2.8-24.6,15.1-45,36.9-61.2
			c21.7-16.2,45.4-22.8,70.9-19.8l30.1,3.5l0.9-8.2l-29.3-4.4c-27.5-3.9-49.6-15.7-66.4-35.6S20.1,153.6,23,128.5
			c3.1-26.4,15.5-48.7,37.3-66.9s45.4-25.8,70.7-22.8c19.8,2.3,37.8,11.2,54,26.5s26.1,32.9,29.8,52.8l6.3,29.2c1.7-0.2,3.3-0.5,5-1
			c1.2-0.4,2.4-0.6,3.6-0.8l-6-29.2c-0.9-4.7-1.4-9.4-1.5-14.2c-0.1-5.5,0.2-10.9,0.9-16.3c3.2-27.8,14.3-49.7,33.4-65.6
			c19-15.9,41.7-22.4,68-19.4c28.3,3.3,51.1,14.9,68.6,35c17.4,20.1,24.7,42.8,21.7,68.3c-1.8,15.3-7.3,30-16.5,44.2
			s-20.5,25-33.6,32.6l-25.7,15.1c0.3,0.7,0.6,1.4,1,2c0.5,0.9,1.5,2.7,3,5.4l25.5-14c9.5-5.2,19.7-8.9,30.3-10.9
			c10.7-2.1,21.6-2.5,32.4-1.3c26.4,3.1,47.2,14.5,62.2,34.4s21,43.7,17.7,71.5c-3.2,27.8-14.4,49.6-33.6,65.4s-42,22.2-68.4,19.1
			c-11.1-1.3-21.9-4.2-32.1-8.6c-9.6-4-18.5-9.6-26.3-16.6l-22.3-20.2c-1.1,1.5-2.1,2.8-3,3.8c-0.8,1-1.8,1.8-2.9,2.4L344.5,348.9z
			 M236.5,338.5c24.2,2.8,45.5-3.2,64.1-17.9c18.6-14.7,29.3-34.1,32-58.3c2.8-24.2-3.2-45.5-17.9-64.1
			c-14.7-18.6-34.2-29.3-58.3-32c-24.2-2.8-45.5,3.2-64.1,17.9s-29.3,34.1-32,58.3c-2.8,24.2,3.2,45.5,17.9,64.1
			C192.9,325.1,212.3,335.8,236.5,338.5z"/>
	</g>
</g>
</svg>
