<?xml version="1.0" encoding="utf-8"?>
<!-- Generator: Adobe Illustrator 26.0.2, SVG Export Plug-In . SVG Version: 6.00 Build 0)  -->
<svg version="1.1" id="Layer_1" xmlns="http://www.w3.org/2000/svg" xmlns:xlink="http://www.w3.org/1999/xlink" x="0px" y="0px"
	 viewBox="0 0 512 512" style="enable-background:new 0 0 512 512;" xml:space="preserve">
<style type="text/css">
	.st0{fill:url(#SVGID_1_);}
</style>
<g id="Layer_2_00000112624960289618809740000014038028581612580770_">
	<g id="Layer_1-2">
		
			<radialGradient id="SVGID_1_" cx="256" cy="-202.0663" r="255.4059" gradientTransform="matrix(1 0 0 -1 0 53.9337)" gradientUnits="userSpaceOnUse">
			<stop  offset="0" style="stop-color:#ED1C24"/>
			<stop  offset="1" style="stop-color:#F15A24"/>
		</radialGradient>
		<path class="st0" d="M343.9,346.2c11.3,11,20.1,24.4,25.8,39.2c6,15.5,8.1,31.1,6.4,46.3c-2.8,25.4-15.2,45.9-36.7,61.1
			c-21.6,15.5-46.3,21.6-74.2,18.4c-26.1-3.2-47-14.5-61.5-34.3c-14.8-19.8-20.5-43.8-17.3-72.1c0.4-4.9,1.4-9.9,2.8-14.8
			c1.1-4.6,2.8-8.8,4.6-13.1l11.7-26.9c-1.4-1.1-2.8-1.8-4.2-2.5c-1.1-0.4-2.1-1.1-3.2-1.1l-13.1,26.1c-9.2,19.1-23.7,35-41.7,45.6
			s-37.1,15.2-56.9,12.7c-25.4-2.8-46.3-15.5-63.6-38.2c-17-23-24-47.3-20.8-73.5c2.8-24.4,15.2-44.9,36.7-60.8
			c21.6-16.3,45.2-22.6,70.7-19.8l30,3.5l1.1-8.1l-29-4.2c-27.2-3.9-49.5-15.5-66.1-35.3s-23.7-42-20.8-67.1
			c3.2-26.1,15.5-48.4,37.1-66.4s45.2-25.8,70.3-22.6c19.8,2.1,37.5,11.3,53.7,26.5s25.8,32.9,29.7,52.6l6.4,29
			c1.8-0.4,3.2-0.4,4.9-1.1c1.1-0.4,2.5-0.7,3.5-0.7l-6-29c-1.1-4.6-1.4-9.2-1.4-14.1c0-5.3,0.4-11,1.1-16.3
			C227,57.9,237.9,36,257,20.1c18.7-15.9,41.3-22.3,67.5-19.4c28.3,3.2,50.9,14.8,68.2,35c17.3,20.1,24.7,42.7,21.6,67.8
			c-1.8,15.2-7.4,29.7-16.3,43.8c-9.2,14.1-20.5,24.7-33.6,32.5L339,195c0.4,0.7,0.7,1.4,1.1,2.1c0.4,1.1,1.4,2.8,2.8,5.3l25.4-13.8
			c9.5-5.3,19.4-8.8,30-11c10.6-2.1,21.6-2.5,32.2-1.4c26.1,3.2,47,14.5,61.8,34.3s20.8,43.5,17.7,71s-14.5,49.5-33.6,65
			c-19.1,15.5-41.7,22.3-68.2,19.1c-11-1.4-21.9-4.2-31.8-8.5c-9.5-3.9-18.4-9.5-26.1-16.6L328,320.4c-1.1,1.4-2.1,2.8-2.8,3.9
			c-0.7,1.1-1.8,1.8-2.8,2.5L343.9,346.2z M236.5,335.9c24,2.8,45.2-3.2,63.6-17.7c18.4-14.5,29-33.9,31.8-57.9
			c2.8-24-3.2-45.2-17.7-63.6c-14.5-18.4-33.9-29-57.9-31.8c-24-2.8-45.2,3.2-63.6,17.7s-29,33.9-31.8,57.9
			c-2.8,24,3.2,45.2,17.7,63.6C193.1,322.5,212.5,333.1,236.5,335.9z"/>
	</g>
</g>
</svg>
