<svg width="47" height="47" viewBox="0 0 47 47" fill="none" xmlns="http://www.w3.org/2000/svg">
<path d="M23.5 38.6875C24.1465 38.6875 24.7665 38.9443 25.2236 39.4014C25.6807 39.8585 25.9375 40.4785 25.9375 41.125V44.0625C25.9375 44.709 25.6807 45.329 25.2236 45.7861C24.7665 46.2432 24.1465 46.5 23.5 46.5C22.8535 46.5 22.2335 46.2432 21.7764 45.7861C21.3193 45.329 21.0625 44.709 21.0625 44.0625V41.125C21.0625 40.4785 21.3193 39.8585 21.7764 39.4014C22.2335 38.9443 22.8535 38.6875 23.5 38.6875ZM23.5 8.3125C22.8535 8.3125 22.2335 8.05569 21.7764 7.59857C21.3193 7.14145 21.0625 6.52146 21.0625 5.875V2.9375C21.0625 2.29103 21.3193 1.67105 21.7764 1.21393C22.2335 0.756807 22.8535 0.5 23.5 0.5C24.1465 0.5 24.7665 0.756807 25.2236 1.21393C25.6807 1.67105 25.9375 2.29103 25.9375 2.9375V5.875C25.9375 6.52146 25.6807 7.14145 25.2236 7.59857C24.7665 8.05569 24.1465 8.3125 23.5 8.3125ZM44.0625 21.0625C44.709 21.0625 45.329 21.3193 45.7861 21.7764C46.2432 22.2335 46.5 22.8535 46.5 23.5C46.5 24.1465 46.2432 24.7665 45.7861 25.2236C45.329 25.6807 44.709 25.9375 44.0625 25.9375H41.125C40.4785 25.9375 39.8585 25.6807 39.4014 25.2236C38.9443 24.7665 38.6875 24.1465 38.6875 23.5C38.6875 22.8535 38.9443 22.2335 39.4014 21.7764C39.8585 21.3193 40.4785 21.0625 41.125 21.0625H44.0625ZM8.3125 23.5C8.3125 24.1465 8.05569 24.7665 7.59857 25.2236C7.14145 25.6807 6.52146 25.9375 5.875 25.9375H2.9375C2.29103 25.9375 1.67105 25.6807 1.21393 25.2236C0.756807 24.7665 0.5 24.1465 0.5 23.5C0.5 22.8535 0.756807 22.2335 1.21393 21.7764C1.67105 21.3193 2.29103 21.0625 2.9375 21.0625H5.875C6.52146 21.0625 7.14145 21.3193 7.59857 21.7764C8.05569 22.2335 8.3125 22.8535 8.3125 23.5ZM35.9787 33.5625C36.6165 33.557 37.2309 33.8016 37.6903 34.2438L39.7607 36.3142C40.2029 36.7735 40.4475 37.388 40.4419 38.0257C40.4364 38.6648 40.18 39.2762 39.7281 39.7281C39.2762 40.18 38.6648 40.4364 38.0257 40.4419C37.388 40.4475 36.7735 40.2029 36.3142 39.7607L34.2438 37.6903C33.8016 37.2309 33.557 36.6165 33.5625 35.9787C33.5681 35.3396 33.8244 34.7283 34.2763 34.2763C34.7283 33.8244 35.3396 33.5681 35.9787 33.5625ZM9.31293 12.7594L7.23612 10.6826C7.00981 10.4563 6.8303 10.1877 6.70783 9.892C6.58536 9.59632 6.52232 9.27941 6.52232 8.95937C6.52232 8.63934 6.58536 8.32243 6.70783 8.02675C6.8303 7.73108 7.00981 7.46242 7.23612 7.23612C7.46242 7.00981 7.73108 6.8303 8.02675 6.70783C8.32243 6.58536 8.63934 6.52232 8.95937 6.52232C9.27941 6.52232 9.59632 6.58536 9.892 6.70783C10.1877 6.8303 10.4563 7.00981 10.6826 7.23612L12.7594 9.31293C12.9857 9.53923 13.1653 9.80789 13.2877 10.1036C13.4102 10.3992 13.4732 10.7161 13.4732 11.0362C13.4732 11.3562 13.4102 11.6731 13.2877 11.9688C13.1653 12.2645 12.9857 12.5331 12.7594 12.7594C12.5331 12.9857 12.2645 13.1653 11.9688 13.2877C11.6731 13.4102 11.3562 13.4732 11.0362 13.4732C10.7161 13.4732 10.3992 13.4102 10.1036 13.2877C9.80789 13.1653 9.53923 12.9857 9.31293 12.7594ZM37.6871 12.7594C37.23 13.2165 36.6102 13.4732 35.9638 13.4732C35.3175 13.4732 34.6976 13.2165 34.2406 12.7594C33.7835 12.3024 33.5268 11.6825 33.5268 11.0362C33.5268 10.3898 33.7835 9.76997 34.2406 9.31293L36.3174 7.23612C36.7744 6.77908 37.3943 6.52232 38.0406 6.52232C38.687 6.52232 39.3068 6.77908 39.7639 7.23612C40.2209 7.69315 40.4777 8.31303 40.4777 8.95937C40.4777 9.60572 40.2209 10.2256 39.7639 10.6826L37.6871 12.7594ZM7.23928 36.3142L9.30976 34.2437C9.76915 33.8016 10.3836 33.557 11.0213 33.5625C11.6604 33.5681 12.2717 33.8244 12.7237 34.2763C13.1756 34.7283 13.4319 35.3396 13.4375 35.9787C13.443 36.6165 13.1984 37.2309 12.7562 37.6903L10.6858 39.7607C10.2264 40.2029 9.61199 40.4475 8.97429 40.4419C8.33519 40.4364 7.72383 40.18 7.2719 39.7281C6.81997 39.2762 6.56362 38.6648 6.55806 38.0257C6.55252 37.388 6.79712 36.7736 7.23928 36.3142Z" stroke="#88A2FF"/>
<path d="M15.545 15.545C17.6548 13.4353 20.5163 12.25 23.5 12.25C26.4837 12.25 29.3452 13.4353 31.455 15.545C33.5647 17.6548 34.75 20.5163 34.75 23.5C34.75 26.4837 33.5647 29.3452 31.455 31.455C29.3452 33.5647 26.4837 34.75 23.5 34.75C20.5163 34.75 17.6548 33.5647 15.545 31.455C13.4353 29.3452 12.25 26.4837 12.25 23.5C12.25 20.5163 13.4353 17.6548 15.545 15.545ZM17.9536 29.0464C19.4246 30.5174 21.4197 31.3438 23.5 31.3438C25.5803 31.3438 27.5754 30.5174 29.0464 29.0464C30.5174 27.5754 31.3438 25.5803 31.3438 23.5C31.3438 21.4197 30.5174 19.4246 29.0464 17.9536C27.5754 16.4826 25.5803 15.6562 23.5 15.6562C21.4197 15.6562 19.4246 16.4826 17.9536 17.9536C16.4826 19.4246 15.6562 21.4197 15.6562 23.5C15.6562 25.5803 16.4826 27.5754 17.9536 29.0464Z" stroke="#88A2FF"/>
</svg>
