<svg width="54" height="54" viewBox="0 0 54 54" fill="none" xmlns="http://www.w3.org/2000/svg">
<path d="M0 18.1125C0 11.7057 0 8.50234 1.2666 6.06404C2.33395 4.0093 4.0093 2.33395 6.06404 1.2666C8.50234 0 11.7057 0 18.1125 0H35.8875C42.2943 0 45.4977 0 47.936 1.2666C49.9907 2.33395 51.6661 4.0093 52.7334 6.06404C54 8.50234 54 11.7057 54 18.1125V35.8875C54 42.2943 54 45.4977 52.7334 47.936C51.6661 49.9907 49.9907 51.6661 47.936 52.7334C45.4977 54 42.2943 54 35.8875 54H18.1125C11.7057 54 8.50234 54 6.06404 52.7334C4.0093 51.6661 2.33395 49.9907 1.2666 47.936C0 45.4977 0 42.2943 0 35.8875V18.1125Z" fill="#0057FF"/>
<path fill-rule="evenodd" clip-rule="evenodd" d="M19.2919 14.625C20.3052 14.6062 21.317 14.71 22.3052 14.9343C23.1373 15.116 23.9273 15.4541 24.6333 15.9305C25.2853 16.4043 25.8011 17.0413 26.1291 17.7775C26.506 18.6828 26.6879 19.6574 26.6628 20.6377C26.7056 21.7141 26.4307 22.7792 25.8723 23.7005C25.2849 24.5706 24.473 25.2654 23.5226 25.7114C24.8123 26.0591 25.9357 26.8556 26.6906 27.9575C27.4154 29.1251 27.7796 30.4805 27.7379 31.8541C27.7618 32.9492 27.5353 34.0354 27.0758 35.0298C26.651 35.8973 26.0291 36.6532 25.2598 37.2372C24.4677 37.8147 23.5764 38.2421 22.6301 38.4979C21.6487 38.7694 20.635 38.9057 19.6168 38.9032H8.4375V14.625H19.2919ZM18.6469 24.4445C19.443 24.4773 20.2267 24.239 20.8697 23.7685C21.1777 23.4944 21.4173 23.152 21.5693 22.7687C21.7213 22.3854 21.7816 21.9719 21.7453 21.5612C21.7659 21.0814 21.6704 20.6039 21.4668 20.169C21.2942 19.8227 21.0257 19.5333 20.6934 19.3352C20.3568 19.1171 19.9786 18.9712 19.5827 18.9067C19.1532 18.8235 18.7161 18.7857 18.2787 18.7938H13.502V24.4662H18.6469V24.4445ZM18.9253 34.7808C19.4068 34.7873 19.8872 34.7353 20.3562 34.6261C20.7847 34.5314 21.1911 34.3555 21.5535 34.1079C21.9084 33.8603 22.1952 33.5273 22.3872 33.1395C22.6099 32.6451 22.7122 32.1049 22.6858 31.5633C22.734 31.0697 22.6687 30.5716 22.4947 30.1072C22.3206 29.6428 22.0426 29.2244 21.6818 28.8841C20.9172 28.3209 19.9802 28.0419 19.032 28.0952H13.502V34.7808H18.9253Z" fill="white"/>
<path fill-rule="evenodd" clip-rule="evenodd" d="M34.9509 34.691C35.3484 35.0595 35.8167 35.3433 36.3272 35.5251C36.8378 35.707 37.38 35.7832 37.9209 35.7491C38.7784 35.7708 39.6193 35.5099 40.3139 35.0066C40.8791 34.6391 41.307 34.0954 41.5313 33.4597H45.5702C45.1399 35.2693 44.089 36.8708 42.6002 37.9859C41.172 38.9338 39.4842 39.4139 37.7709 39.3595C36.5481 39.3755 35.3345 39.1457 34.2022 38.6835C33.178 38.2564 32.2594 37.6107 31.5107 36.7917C30.7647 35.9335 30.1917 34.9391 29.823 33.8635C29.4092 32.6611 29.2067 31.3961 29.2244 30.1247C29.2169 28.8745 29.4262 27.6325 29.8431 26.4539C30.4033 24.7958 31.4743 23.3578 32.9025 22.3463C34.3306 21.3347 36.0425 20.8015 37.7925 20.8233C39.0846 20.7963 40.3622 21.0987 41.505 21.7019C42.5381 22.2684 43.4293 23.0617 44.1115 24.0222C44.8094 25.0301 45.3097 26.1613 45.5857 27.3557C45.8884 28.6384 45.9963 29.9592 45.9059 31.274H33.8758C33.7784 32.5092 34.1638 33.7341 34.9509 34.691ZM40.2289 25.4577C39.8922 25.121 39.4873 24.8603 39.0414 24.6933C38.5956 24.5263 38.1191 24.4567 37.644 24.4894C37.0138 24.4654 36.3882 24.605 35.828 24.8947C35.3839 25.1392 34.9919 25.4681 34.674 25.863C34.3923 26.2333 34.1825 26.653 34.0553 27.1005C33.9407 27.4737 33.8691 27.8588 33.8418 28.2483H41.2931C41.2282 27.233 40.8583 26.2609 40.232 25.4593L40.2289 25.4577Z" fill="white"/>
<path d="M32.8812 16.2461H42.2182V18.6329H32.8812V16.2461Z" fill="white"/>
</svg>
