<svg width="54" height="54" viewBox="0 0 54 54" fill="none" xmlns="http://www.w3.org/2000/svg">
<path d="M0 18.1125C0 11.7057 0 8.50234 1.2666 6.06404C2.33395 4.0093 4.0093 2.33395 6.06404 1.2666C8.50234 0 11.7057 0 18.1125 0H35.8875C42.2943 0 45.4977 0 47.936 1.2666C49.9907 2.33395 51.6661 4.0093 52.7334 6.06404C54 8.50234 54 11.7057 54 18.1125V35.8875C54 42.2943 54 45.4977 52.7334 47.936C51.6661 49.9907 49.9907 51.6661 47.936 52.7334C45.4977 54 42.2943 54 35.8875 54H18.1125C11.7057 54 8.50234 54 6.06404 52.7334C4.0093 51.6661 2.33395 49.9907 1.2666 47.936C0 45.4977 0 42.2943 0 35.8875V18.1125Z" fill="url(#paint0_linear_216_1246)"/>
<path d="M37.5 34.5L38.7 27H31.5V21.75C31.5 19.65 32.25 18 35.55 18H39V11.1C37.05 10.8 34.95 10.5 33 10.5C26.85 10.5 22.5 14.25 22.5 21V27H15.75V34.5H22.5V54C25.5 54 28.5 54 31.5 54V34.5H37.5Z" fill="white"/>
<defs>
<linearGradient id="paint0_linear_216_1246" x1="27" y1="52.4222" x2="27" y2="0" gradientUnits="userSpaceOnUse">
<stop stop-color="#0062E0"/>
<stop offset="1" stop-color="#19AFFF"/>
</linearGradient>
</defs>
</svg>
