<svg width="54" height="54" viewBox="0 0 54 54" fill="none" xmlns="http://www.w3.org/2000/svg">
<g clip-path="url(#clip0_216_1247)">
<path d="M0.0307617 18.1125C0.0307617 11.7057 0.0307617 8.50234 1.29736 6.06404C2.36471 4.0093 4.04006 2.33395 6.0948 1.2666C8.53311 0 11.7365 0 18.1433 0H35.9183C42.325 0 45.5284 0 47.9667 1.2666C50.0215 2.33395 51.6968 4.0093 52.7642 6.06404C54.0308 8.50234 54.0308 11.7057 54.0308 18.1125V35.8875C54.0308 42.2943 54.0308 45.4977 52.7642 47.936C51.6968 49.9907 50.0215 51.6661 47.9667 52.7334C45.5284 54 42.325 54 35.9183 54H18.1433C11.7365 54 8.53311 54 6.0948 52.7334C4.04006 51.6661 2.36471 49.9907 1.29736 47.936C0.0307617 45.4977 0.0307617 42.2943 0.0307617 35.8875V18.1125Z" fill="url(#paint0_radial_216_1247)"/>
<path d="M0.0307617 18.1125C0.0307617 11.7057 0.0307617 8.50234 1.29736 6.06404C2.36471 4.0093 4.04006 2.33395 6.0948 1.2666C8.53311 0 11.7365 0 18.1433 0H35.9183C42.325 0 45.5284 0 47.9667 1.2666C50.0215 2.33395 51.6968 4.0093 52.7642 6.06404C54.0308 8.50234 54.0308 11.7057 54.0308 18.1125V35.8875C54.0308 42.2943 54.0308 45.4977 52.7642 47.936C51.6968 49.9907 50.0215 51.6661 47.9667 52.7334C45.5284 54 42.325 54 35.9183 54H18.1433C11.7365 54 8.53311 54 6.0948 52.7334C4.04006 51.6661 2.36471 49.9907 1.29736 47.936C0.0307617 45.4977 0.0307617 42.2943 0.0307617 35.8875V18.1125Z" fill="url(#paint1_radial_216_1247)"/>
<path d="M27.0007 7.36353C21.6679 7.36353 20.9987 7.38684 18.9042 7.48216C16.8138 7.57789 15.3869 7.90884 14.1384 8.39443C12.847 8.89598 11.7515 9.56689 10.66 10.6588C9.56781 11.7502 8.89692 12.8458 8.39375 14.1368C7.90695 15.3858 7.57559 16.8131 7.4815 18.9028C7.38783 20.9973 7.36328 21.667 7.36328 26.9999C7.36328 32.3328 7.38701 33 7.48191 35.0946C7.57805 37.185 7.90899 38.6119 8.39416 39.8605C8.8961 41.152 9.56699 42.2475 10.6588 43.339C11.7498 44.4313 12.8453 45.1038 14.136 45.6053C15.3853 46.0909 16.8126 46.4219 18.9026 46.5176C20.9971 46.6129 21.6659 46.6362 26.9982 46.6362C32.3314 46.6362 32.9986 46.6129 35.0931 46.5176C37.1835 46.4219 38.612 46.0909 39.8613 45.6053C41.1524 45.1038 42.2462 44.4313 43.3372 43.339C44.4295 42.2475 45.1004 41.152 45.6035 39.8609C46.0862 38.6119 46.4176 37.1846 46.5158 35.095C46.6099 33.0004 46.6344 32.3328 46.6344 26.9999C46.6344 21.667 46.6099 20.9977 46.5158 18.9032C46.4176 16.8127 46.0862 15.3858 45.6035 14.1373C45.1004 12.8458 44.4295 11.7502 43.3372 10.6588C42.245 9.56648 41.1528 8.89557 39.8601 8.39443C38.6083 7.90884 37.1806 7.57789 35.0902 7.48216C32.9957 7.38684 32.3289 7.36353 26.9946 7.36353H27.0007ZM25.2392 10.9022C25.762 10.9013 26.3453 10.9022 27.0007 10.9022C32.2434 10.9022 32.8648 10.921 34.9352 11.0151C36.8497 11.1026 37.8887 11.4225 38.5809 11.6913C39.4972 12.0472 40.1505 12.4727 40.8374 13.1599C41.5246 13.8472 41.9501 14.5018 42.3068 15.4181C42.5755 16.1095 42.8958 17.1486 42.983 19.0631C43.0771 21.1331 43.0975 21.7549 43.0975 26.9954C43.0975 32.2358 43.0771 32.8577 42.983 34.9277C42.8954 36.8422 42.5755 37.8813 42.3068 38.5727C41.9509 39.489 41.5246 40.1415 40.8374 40.8284C40.1501 41.5157 39.4976 41.9411 38.5809 42.297C37.8895 42.567 36.8497 42.8861 34.9352 42.9737C32.8652 43.0677 32.2434 43.0882 27.0007 43.0882C21.7575 43.0882 21.1361 43.0677 19.0662 42.9737C17.1517 42.8853 16.1127 42.5654 15.4201 42.2966C14.5037 41.9407 13.8492 41.5153 13.162 40.828C12.4747 40.1407 12.0493 39.4878 11.6926 38.571C11.4238 37.8797 11.1035 36.8406 11.0164 34.926C10.9223 32.856 10.9034 32.2342 10.9034 26.9905C10.9034 21.7468 10.9223 21.1282 11.0164 19.0582C11.1039 17.1437 11.4238 16.1046 11.6926 15.4124C12.0485 14.496 12.4747 13.8415 13.162 13.1542C13.8492 12.4669 14.5037 12.0415 15.4201 11.6848C16.1122 11.4148 17.1517 11.0957 19.0662 11.0077C20.8776 10.9259 21.5796 10.9013 25.2392 10.8973V10.9022ZM37.4821 14.1626C36.1812 14.1626 35.1258 15.2168 35.1258 16.5182C35.1258 17.8191 36.1812 18.8745 37.4821 18.8745C38.783 18.8745 39.8384 17.8191 39.8384 16.5182C39.8384 15.2173 38.783 14.1618 37.4821 14.1618V14.1626ZM27.0007 16.9158C21.4319 16.9158 16.9169 21.4309 16.9169 26.9999C16.9169 32.5688 21.4319 37.0819 27.0007 37.0819C32.5695 37.0819 37.0828 32.5688 37.0828 26.9999C37.0828 21.4309 32.5691 16.9158 27.0003 16.9158H27.0007ZM27.0007 20.4544C30.6153 20.4544 33.5459 23.3848 33.5459 26.9999C33.5459 30.6146 30.6153 33.5453 27.0007 33.5453C23.3857 33.5453 20.4554 30.6146 20.4554 26.9999C20.4554 23.3848 23.3857 20.4544 27.0007 20.4544V20.4544Z" fill="white"/>
</g>
<defs>
<radialGradient id="paint0_radial_216_1247" cx="0" cy="0" r="1" gradientUnits="userSpaceOnUse" gradientTransform="translate(14.3746 58.1591) rotate(-90) scale(53.518 49.7759)">
<stop stop-color="#FFDD55"/>
<stop offset="0.1" stop-color="#FFDD55"/>
<stop offset="0.5" stop-color="#FF543E"/>
<stop offset="1" stop-color="#C837AB"/>
</radialGradient>
<radialGradient id="paint1_radial_216_1247" cx="0" cy="0" r="1" gradientUnits="userSpaceOnUse" gradientTransform="translate(-9.01452 3.89007) rotate(78.6806) scale(23.9228 98.6106)">
<stop stop-color="#3771C8"/>
<stop offset="0.128" stop-color="#3771C8"/>
<stop offset="1" stop-color="#6600FF" stop-opacity="0"/>
</radialGradient>
<clipPath id="clip0_216_1247">
<rect width="54" height="54" fill="white"/>
</clipPath>
</defs>
</svg>
