<svg width="54" height="54" viewBox="0 0 54 54" fill="none" xmlns="http://www.w3.org/2000/svg">
<path d="M0 18.1125C0 11.7057 0 8.50234 1.2666 6.06404C2.33395 4.0093 4.0093 2.33395 6.06404 1.2666C8.50234 0 11.7057 0 18.1125 0H35.8875C42.2943 0 45.4977 0 47.936 1.2666C49.9907 2.33395 51.6661 4.0093 52.7334 6.06404C54 8.50234 54 11.7057 54 18.1125V35.8875C54 42.2943 54 45.4977 52.7334 47.936C51.6661 49.9907 49.9907 51.6661 47.936 52.7334C45.4977 54 42.2943 54 35.8875 54H18.1125C11.7057 54 8.50234 54 6.06404 52.7334C4.0093 51.6661 2.33395 49.9907 1.2666 47.936C0 45.4977 0 42.2943 0 35.8875V18.1125Z" fill="#1265BF"/>
<path d="M12.1205 16.7699C14.7077 16.7699 16.805 14.6725 16.805 12.0854C16.805 9.4982 14.7077 7.40088 12.1205 7.40088C9.53335 7.40088 7.43604 9.4982 7.43604 12.0854C7.43604 14.6725 9.53335 16.7699 12.1205 16.7699Z" fill="white"/>
<path d="M21.0952 20.2318H28.8589V23.7884C28.8589 23.7884 30.9657 19.5749 36.698 19.5749C41.8114 19.5749 46.0473 22.0939 46.0473 29.772V45.9629H38.0019V31.7339C38.0019 27.2045 35.5838 26.7063 33.7412 26.7063C29.9171 26.7063 29.2624 30.0049 29.2624 32.3247V45.9629H21.0952V20.2318Z" fill="white"/>
<path d="M8.03694 20.2318H16.2041V45.9629H8.03694V20.2318Z" fill="white"/>
</svg>
